<svg width="135" height="28" viewBox="0 0 135 28" fill="none" xmlns="http://www.w3.org/2000/svg">
<path d="M19.99 22.7591L2.05 10.3841C0.232001 9.13011 0.850002 6.51911 3.117 5.90511L22.184 0.730106C22.5879 0.584366 23.0207 0.537056 23.4466 0.592106C23.8724 0.647156 24.279 0.802976 24.6326 1.04663C24.9861 1.29029 25.2765 1.61476 25.4795 1.99311C25.6825 2.37147 25.7924 2.79279 25.8 3.22211L24.67 20.7711C24.536 22.8541 21.808 24.0131 19.99 22.7591Z" fill="#E9327C"/>
<path d="M14.3002 25.8139L3.73122 5.14492C3.48963 4.67208 3.38331 4.14169 3.42401 3.61226C3.4647 3.08283 3.65081 2.57492 3.96183 2.14455C4.27284 1.71418 4.69668 1.37806 5.18658 1.17326C5.67649 0.96846 6.21344 0.902941 6.73822 0.983923L26.3252 4.00692C26.7762 4.07653 27.2042 4.25218 27.574 4.51943C27.9438 4.78668 28.245 5.1379 28.4526 5.54421C28.6603 5.95053 28.7685 6.40032 28.7684 6.85662C28.7684 7.31291 28.66 7.76267 28.4522 8.16892L19.4292 25.8149C19.1869 26.2864 18.8193 26.682 18.3669 26.9581C17.9144 27.2343 17.3945 27.3803 16.8644 27.3802C16.3343 27.3801 15.8145 27.2339 15.3621 26.9575C14.9098 26.6812 14.5423 26.2855 14.3002 25.8139V25.8139Z" fill="#1DACE3"/>
<path d="M25.752 3.91789L15.988 2.41089L4 5.66589L8.785 15.0269L19.99 22.7589C20.2372 22.9275 20.5091 23.0568 20.796 23.1419L25.052 14.8189L25.752 3.91789Z" fill="#342730"/>
<path d="M75.209 6.33402C75.209 5.97109 75.3166 5.61632 75.5182 5.31455C75.7199 5.01279 76.0065 4.77759 76.3418 4.6387C76.6771 4.49982 77.046 4.46348 77.402 4.53428C77.7579 4.60509 78.0849 4.77986 78.3415 5.03648C78.5982 5.29311 78.7729 5.62008 78.8437 5.97603C78.9145 6.33199 78.8782 6.70095 78.7393 7.03625C78.6004 7.37155 78.3652 7.65814 78.0635 7.85977C77.7617 8.0614 77.4069 8.16902 77.044 8.16902C76.5588 8.16408 76.095 7.96916 75.7519 7.6261C75.4089 7.28303 75.2139 6.81916 75.209 6.33402V6.33402ZM75.515 9.06603H78.574V19.26H75.515V9.06603Z" fill="#342730"/>
<path d="M91.7839 14.1631C91.8195 14.8369 91.7214 15.5111 91.4955 16.1469C91.2695 16.7827 90.9201 17.3675 90.4674 17.8678C90.0146 18.368 89.4674 18.7739 88.8572 19.0619C88.247 19.3499 87.5859 19.5145 86.9119 19.5461C86.345 19.577 85.7783 19.4813 85.2528 19.2662C84.7274 19.051 84.2564 18.7217 83.8739 18.3021V23.3381H80.8159V9.0661H83.8739V10.0241C84.2565 9.60465 84.7275 9.27553 85.253 9.06055C85.7784 8.84557 86.3451 8.75011 86.9119 8.7811C87.5859 8.81259 88.2469 8.97703 88.8571 9.26495C89.4673 9.55288 90.0145 9.9586 90.4673 10.4588C90.9201 10.959 91.2695 11.5438 91.4955 12.1795C91.7214 12.8152 91.8195 13.4893 91.7839 14.1631ZM88.7259 14.1631C88.7139 13.6858 88.5614 13.2227 88.2875 12.8317C88.0136 12.4406 87.6304 12.1391 87.186 11.9647C86.7415 11.7904 86.2555 11.751 85.7888 11.8515C85.3221 11.952 84.8953 12.1879 84.562 12.5297C84.2287 12.8716 84.0036 13.3041 83.9149 13.7732C83.8262 14.2423 83.8779 14.7272 84.0634 15.1671C84.2489 15.607 84.56 15.9825 84.9578 16.2464C85.3557 16.5104 85.8225 16.6511 86.2999 16.6511C86.6278 16.6659 86.955 16.6111 87.2602 16.4905C87.5654 16.3698 87.8416 16.186 88.0707 15.951C88.2998 15.716 88.4766 15.4353 88.5896 15.1271C88.7025 14.819 88.749 14.4905 88.7259 14.1631V14.1631Z" fill="#342730"/>
<path d="M101.223 16.2001C101.223 18.5451 99.1841 19.5441 96.9821 19.5441C96.0926 19.6246 95.1993 19.4363 94.4179 19.0037C93.6365 18.571 93.003 17.9138 92.5991 17.1171L95.2491 15.6091C95.3569 15.9774 95.5877 16.2975 95.9032 16.5159C96.2186 16.7343 96.5995 16.8378 96.9821 16.8091C97.7161 16.8091 98.0821 16.5841 98.0821 16.1771C98.0821 15.0551 93.0671 15.6471 93.0671 12.1191C93.0671 9.89712 94.9421 8.77612 97.0671 8.77612C97.8642 8.7511 98.6533 8.94024 99.3524 9.32382C100.052 9.70741 100.635 10.2714 101.042 10.9571L98.4331 12.3641C98.319 12.0965 98.1286 11.8685 97.8857 11.7084C97.6427 11.5484 97.358 11.4634 97.0671 11.4641C96.5371 11.4641 96.2111 11.6641 96.2111 12.0351C96.2081 13.2051 101.223 12.4301 101.223 16.2001Z" fill="#342730"/>
<path d="M112.4 9.06592V19.2599H109.342V18.2999C108.988 18.7228 108.54 19.056 108.033 19.2722C107.526 19.4885 106.976 19.5816 106.426 19.5439C104.367 19.5439 102.614 18.0759 102.614 15.3229V9.06592H105.672V14.8769C105.646 15.1199 105.674 15.3655 105.752 15.5968C105.831 15.828 105.96 16.0393 106.129 16.2159C106.297 16.3924 106.503 16.5301 106.73 16.6192C106.958 16.7083 107.202 16.7468 107.446 16.7319C108.567 16.7319 109.346 16.0799 109.346 14.6319V9.06592H112.4Z" fill="#342730"/>
<path d="M129.928 13V19.26H126.87V13.266C126.87 12.247 126.38 11.594 125.402 11.594C124.382 11.594 123.812 12.308 123.812 13.511V19.26H120.753V13.266C120.753 12.247 120.264 11.594 119.285 11.594C118.266 11.594 117.695 12.308 117.695 13.511V19.26H114.637V9.06602H117.7V10C118.017 9.58412 118.433 9.25429 118.91 9.04064C119.388 8.827 119.911 8.73636 120.432 8.77701C120.956 8.75142 121.477 8.86186 121.945 9.09757C122.413 9.33328 122.812 9.68623 123.103 10.122C123.442 9.66605 123.891 9.3035 124.408 9.06828C124.925 8.83305 125.494 8.73284 126.06 8.77701C128.4 8.78101 129.928 10.452 129.928 13Z" fill="#342730"/>
<path d="M132.519 9.00289C133.773 9.00289 134.789 7.98658 134.789 6.73289C134.789 5.4792 133.773 4.46289 132.519 4.46289C131.265 4.46289 130.249 5.4792 130.249 6.73289C130.249 7.98658 131.265 9.00289 132.519 9.00289Z" fill="#342730"/>
<path d="M33.457 4.37695H36.516V19.26H33.457V4.37695ZM38.248 14.163C38.2447 13.0942 38.5585 12.0485 39.1498 11.1583C39.7411 10.268 40.5833 9.57322 41.5697 9.1619C42.5562 8.75058 43.6424 8.64121 44.6911 8.84765C45.7397 9.05409 46.7035 9.56704 47.4604 10.3216C48.2173 11.0761 48.7333 12.0382 48.943 13.0862C49.1527 14.1342 49.0468 15.2208 48.6386 16.2085C48.2304 17.1962 47.5383 18.0406 46.6499 18.6347C45.7615 19.2288 44.7168 19.546 43.648 19.546C42.9382 19.5535 42.234 19.4196 41.5765 19.152C40.9191 18.8844 40.3215 18.4884 39.8188 17.9873C39.316 17.4861 38.9182 16.8898 38.6485 16.2332C38.3788 15.5766 38.2427 14.8728 38.248 14.163V14.163ZM45.996 14.163C45.984 13.7019 45.8364 13.2547 45.5715 12.8772C45.3067 12.4997 44.9364 12.2086 44.507 12.0404C44.0775 11.8723 43.6081 11.8344 43.1573 11.9317C42.7065 12.0289 42.2944 12.257 41.9725 12.5872C41.6506 12.9175 41.4333 13.3353 41.3476 13.7884C41.262 14.2416 41.3118 14.7099 41.491 15.1349C41.6701 15.5598 41.9706 15.9225 42.3548 16.1776C42.739 16.4327 43.1899 16.5688 43.651 16.569C43.9668 16.578 44.2811 16.5214 44.5739 16.4029C44.8668 16.2845 45.1319 16.1066 45.3526 15.8805C45.5733 15.6545 45.7448 15.3852 45.8562 15.0896C45.9676 14.7939 46.0166 14.4784 46 14.163H45.996ZM61.245 9.06295V18.748C61.245 22.173 58.574 23.62 55.863 23.62C54.9088 23.692 53.9531 23.4999 53.1007 23.0647C52.2484 22.6296 51.5323 21.9681 51.031 21.153L53.64 19.644C53.8506 20.0694 54.1861 20.4204 54.6016 20.6501C55.0171 20.8797 55.4927 20.977 55.965 20.929C56.2665 20.9701 56.5733 20.9431 56.8629 20.8498C57.1525 20.7565 57.4174 20.5995 57.6382 20.3901C57.8589 20.1808 58.0298 19.9246 58.1383 19.6403C58.2468 19.3561 58.2901 19.0511 58.265 18.748V17.81C57.9068 18.248 57.4509 18.596 56.934 18.8261C56.417 19.0562 55.8533 19.162 55.288 19.135C53.9425 19.0931 52.666 18.5292 51.729 17.5626C50.792 16.596 50.268 15.3027 50.268 13.9565C50.268 12.6102 50.792 11.3169 51.729 10.3503C52.666 9.38369 53.9425 8.81977 55.288 8.77795C55.8533 8.75091 56.417 8.85667 56.934 9.08677C57.4509 9.31687 57.9068 9.6649 58.265 10.103V9.06295H61.245ZM58.269 13.956C58.2892 13.4636 58.1616 12.9765 57.9027 12.5572C57.6438 12.1379 57.2654 11.8056 56.8161 11.6031C56.3669 11.4006 55.8673 11.3371 55.3817 11.4208C54.8961 11.5045 54.4466 11.7315 54.091 12.0727C53.7354 12.4139 53.49 12.8536 53.3864 13.3353C53.2827 13.8171 53.3255 14.3188 53.5093 14.7761C53.693 15.2333 54.0094 15.6251 54.4176 15.9011C54.8258 16.1771 55.3073 16.3247 55.8 16.325C56.1213 16.3475 56.4438 16.3026 56.7467 16.1931C57.0496 16.0836 57.3262 15.9119 57.5588 15.689C57.7913 15.4662 57.9747 15.1971 58.097 14.8992C58.2193 14.6012 58.2779 14.2809 58.269 13.959V13.956ZM62.977 14.156C62.9737 13.0872 63.2875 12.0415 63.8788 11.1513C64.4701 10.261 65.3123 9.56622 66.2987 9.1549C67.2852 8.74358 68.3714 8.63421 69.4201 8.84065C70.4687 9.04709 71.4324 9.56004 72.1894 10.3146C72.9463 11.0691 73.4623 12.0312 73.672 13.0792C73.8817 14.1272 73.7758 15.2138 73.3676 16.2015C72.9594 17.1892 72.2673 18.0336 71.3789 18.6277C70.4905 19.2218 69.4458 19.539 68.377 19.539C67.6678 19.5465 66.9642 19.4128 66.3072 19.1456C65.6502 18.8785 65.0529 18.4831 64.5503 17.9827C64.0476 17.4823 63.6497 16.8869 63.3796 16.231C63.1094 15.5752 62.9726 14.8722 62.977 14.163V14.156ZM70.725 14.156C70.7132 13.6947 70.5656 13.2471 70.3008 12.8692C70.0359 12.4914 69.6654 12.2001 69.2358 12.0317C68.8061 11.8633 68.3364 11.8254 67.8853 11.9227C67.4342 12.0199 67.0218 12.2481 66.6998 12.5785C66.3777 12.909 66.1602 13.3271 66.0746 13.7805C65.9889 14.2339 66.0389 14.7026 66.2182 15.1277C66.3976 15.5529 66.6983 15.9157 67.0828 16.1709C67.4674 16.426 67.9186 16.562 68.38 16.562C68.6949 16.5703 69.008 16.5136 69.2999 16.3953C69.5918 16.277 69.8561 16.0996 70.0763 15.8744C70.2964 15.6492 70.4677 15.3809 70.5793 15.0864C70.691 14.7919 70.7406 14.4775 70.725 14.163V14.156Z" fill="#342730"/>
</svg>
